<svg width="300" height="290" viewBox="0 0 300 290" fill="none" xmlns="http://www.w3.org/2000/svg">
<circle cx="152.318" cy="152.318" r="137.504" fill="black"/>
<ellipse cx="152.318" cy="152.318" rx="125.747" ry="125.747" fill="#BDC9D4"/>
<ellipse cx="152.318" cy="152.318" rx="125.747" ry="125.747" fill="#BDC9D4"/>
<ellipse cx="152.318" cy="152.318" rx="125.747" ry="125.747" fill="#BDC9D4"/>
<ellipse cx="150" cy="142.97" rx="125.747" ry="116.115" transform="rotate(-13.9283 150 142.97)" fill="#FAFAF9"/>
<ellipse cx="237.062" cy="172.19" rx="20.0634" ry="15.8462" transform="rotate(-20.1103 237.062 172.19)" fill="#F8D9D5"/>
<ellipse cx="125.3" cy="58.9633" rx="10.3009" ry="7.70378" transform="rotate(-33.6027 125.3 58.9633)" fill="#DDDEDB"/>
<ellipse cx="68.8015" cy="88.011" rx="7.28415" ry="4.60051" transform="rotate(-33.9711 68.8015 88.011)" fill="#DDDEDB"/>
<ellipse cx="223.64" cy="86.6444" rx="10.0956" ry="6.51739" transform="rotate(33.319 223.64 86.6444)" fill="#DDDEDB"/>
<ellipse cx="102.517" cy="222.435" rx="22.747" ry="16.8686" transform="rotate(26.528 102.517 222.435)" fill="#DDDEDB"/>
<ellipse cx="65.025" cy="172.072" rx="20.6733" ry="16.4191" transform="rotate(33.5639 65.025 172.072)" fill="#F8D9D5"/>
<path d="M98.4541 149.571C98.4541 140.178 92.1284 134.939 83.8219 134.939C76.41 134.939 68.3591 142.99 68.3591 149.571C68.3591 155.897 70.276 157.43 73.8542 157.43H90.7962C93.0326 157.43 98.4541 155.715 98.4541 149.571Z" fill="black"/>
<path d="M206.384 149.571C206.384 140.178 212.71 134.939 221.016 134.939C228.428 134.939 236.479 142.99 236.479 149.571C236.479 155.897 234.562 157.43 230.984 157.43H214.042C211.806 157.43 206.384 155.715 206.384 149.571Z" fill="black"/>
<path d="M166.12 160.753C166.12 166.887 160.625 174.171 151.168 174.171C141.201 174.171 135.961 165.353 135.961 160.753C135.961 156.152 133.661 155.705 131.488 155.705C129.657 155.215 126.632 156.203 127.144 164.075C127.782 173.915 138.389 184.011 153.341 184.011C169.954 184.011 176.088 166.631 176.088 160.753C176.088 157.43 173.404 155.705 171.168 155.705C168.932 155.705 166.12 156.919 166.12 160.753Z" fill="black"/>
</svg>
